<svg xmlns="http://www.w3.org/2000/svg" xml:space="preserve" fill="#ffffff" viewBox="0 0 20 12">
<path d="M10 .37c.45 0 1.33.64 1.1 4.23-.06-.08-.09-.19-.09-.33C11.12 1.62 10.5.6 10 .6 9.5.6 8.88 1.62 8.99 4.27c0 .14-.03.25-.09.33C8.67 1.01 9.55.37 10 .37ZM9.43 11.12q.57 1.46 1.14 0h2.89c.02-1.08-.58-.8-2.38-1.57.17-.55.11-1.25.15-1.4.02-.06.47-.13.54-.1.08.03.16.42.25.44.07.01.11-.27.19-.38.05-.07.48-.09.52-.05.06.06.18.44.25.44.06.01.13-.25.18-.37.04-.05.4-.02.47.02.06.04.18.38.25.39.05.01.18-.26.26-.34.03-.05.57.04.66.08.06.03.25.45.32.43.1-.02.1-.38.15-.38.54-.08.51.33.65.36.15-.03.11-.61.19-.59l3.53.68c.12-.01.28-.48.11-.67L17.3 7.16a.08.08 90 10-1.23-.47l-1.48-.57c-.03-.74-.78-.91-1.18-.45l-2.17-.83C11.64.72 10.45.21 10 .21S8.36.72 8.75 4.84l-2.17.83c-.41-.46-1.15-.29-1.18.45l-1.48.57a.08.08 0 10-1.23.47L.24 8.11c-.17.19-.01.66.11.67L3.88 8.1c.08-.02.04.55.19.59.14-.02.11-.44.65-.36.06 0 .05.36.16.38.06.01.26-.4.32-.43.09-.04.63-.12.66-.08.08.08.21.35.26.34.07 0 .19-.35.25-.39.07-.04.43-.06.47-.02.06.12.13.39.18.37.07 0 .19-.38.25-.44.04-.03.46-.01.52.05.08.1.12.39.19.38.08-.02.17-.41.25-.44.07-.02.52.04.54.1.04.14-.02.85.15 1.4-1.8.77-2.4.49-2.38 1.57Zm7.62-4.51a.54.5 90 11-.79.08.47.45 90 10.79-.08Zm.2.79a0 0 90 01.04-.06l2.39.9Zm-4.98-.27c.16-.01.3.01.53.08.05.03.01.06-.02.05-.19-.04-.45-.04-.51-.13Zm2.62.45c-.2-.01-.45-.05-.66-.13.26 0 .47.06.66.13ZM10.93 4.93c-.06.09-.14.21-.25.29.12-.16.18-.31.28-.49.19.6.3.99.13 2.77.03-1.52-.01-1.75-.15-2.56Zm-2.2.11c.09-.03.01.18-.05.21-.27.13-.29.22-.82.35a.1.1 0 10-.1-.02l-1.01.36a.01.01 0 01-.06-.13ZM5.36 6.38a.01.01 0 01.05.08l-1.38.5A.01.01 0 013.99 6.9Zm.27-.54a.46.5 0 10.87.09.51.56 0 11-.87-.09Zm5.44 3.97a.01.01 90 11.04-.08c1.64.62 1.9.59 2.03.77ZM8.65 7.06a.01.01 0 010 .06l-.51.01a.01.01 0 01-.01-.06Zm4.67-1.25a.01.01 90 01-.06.13l-1.02-.36a.1.1 90 10-.1.02c-.53-.13-.55-.22-.82-.35-.06-.03-.14-.24-.05-.21Zm2.69 1.08a.01.01 90 01-.04.06l-1.38-.49a.01.01 90 01.05-.08ZM14.37 5.84a.56.51 90 11-.87.09.5.46 90 10.87-.09ZM11.86 7.07a.01.01 90 01-.01.06l-.51-.01a.01.01 90 010-.06ZM9.06 4.94c-.14.81-.18 1.04-.15 2.56-.17-1.78-.06-2.17.13-2.77.1.18.16.33.28.49-.11-.08-.19-.2-.25-.29ZM2.94 6.61a.45.47 0 10.79.08.5.54 0 11-.79-.08ZM.33 8.24l2.38-.9a.01.01 0 01.03.06ZM7.72 7.13c-.06.09-.32.09-.51.13-.03.01-.07-.02-.02-.05.23-.07.37-.09.53-.08Zm-2.61.45c.19-.07.4-.13.66-.13-.21.08-.46.12-.66.13ZM6.86 10.5c.13-.18.39-.15 2.03-.77a.01.01 0 11.04.08Z"/>
</svg>