<svg xmlns="http://www.w3.org/2000/svg" viewBox="0 0 255 255">
  <path d="M188.2 86a13.2 13.2 0 0 0-18.8-18.3l-29.6 29.6a8 8 0 0 1-7 2L72.7 86.6a8 8 0 0 0-7.4 2.2l-4.5 4.5s-8.8 8 2.5 13l44.6 19.5c1.3.5 1.8 1.6.6 3l-12.1 12q-1 .9-2.4.6l-11.6-3.6a7 7 0 0 0-6.8 1.7l-4.6 4.7c-3.6 3.1-3.3 7.9 1.9 10.8l19.1 9 8.9 18.8c2 4 7 5.8 10.8 1.9l4.7-4.7a7 7 0 0 0 1.7-6.7l-3.6-11.7q-.4-1.3.6-2.3l12-12c.8-.9 2.2-1 2.9.6l19.5 44.6c3.7 6 8.8 6.8 13 2.5l4.5-4.6a8 8 0 0 0 2.2-7.3l-12.8-60.3q-.7-4 2.1-7zm-60-84.6a126.5 126.5 0 1 1-.6 0Z" style="fill: rgba(0, 10, 40, 1)"/>
</svg>